<?xml version="1.0" encoding="UTF-8"?>
<!DOCTYPE svg PUBLIC "-//W3C//DTD SVG 1.1//EN" "http://www.w3.org/Graphics/SVG/1.1/DTD/svg11.dtd">
<!-- Creator: CorelDRAW X8 -->
<svg xmlns="http://www.w3.org/2000/svg" xml:space="preserve" width="84.6666mm" height="84.6666mm" version="1.1" style="shape-rendering:geometricPrecision; text-rendering:geometricPrecision; image-rendering:optimizeQuality; fill-rule:evenodd; clip-rule:evenodd"
viewBox="0 0 8467 8467"
 xmlns:xlink="http://www.w3.org/1999/xlink">
 <defs>
  <style type="text/css">
   <![CDATA[
    .str0 {stroke:#136DF4;stroke-width:7.62}
    .fil1 {fill:#0060F3}
    .fil0 {fill:#136DF4}
   ]]>
  </style>
 </defs>
 <g id="Layer_x0020_1">
  <metadata id="CorelCorpID_0Corel-Layer"/>
  <g id="_2112787455600">
   <path class="fil0 str0" d="M2508 3549c-155,-171 -50,-1393 -16,-1576l-1918 0 0 1867c252,0 1501,-80 1693,61 -243,371 -1099,714 -1759,754l34 1901c808,-83 1626,-287 2235,-621 355,-195 994,-654 1244,-953 85,-103 253,-264 310,-348 -128,542 -823,1383 -938,1923l2173 -5c153,-176 2248,-4294 2393,-4638l-2119 -4c-271,170 -779,1532 -961,1619l1 -1618 -1526 -1c-81,245 -685,1541 -846,1639z"/>
   <path class="fil1 str0" d="M2267 3901c-192,-141 -1441,-61 -1693,-61l0 -1867 1918 0c-34,183 -139,1405 16,1576l-2 -1634 -1991 -1 -1 1986 1753 1z"/>
  </g>
 </g>
</svg>
